<svg width="219" height="124" viewBox="0 0 219 124" fill="none" xmlns="http://www.w3.org/2000/svg">
<g clip-path="url(#clip0_398_72)">
<g filter="url(#filter0_d_398_72)">
<rect width="219.564" height="123.989" rx="16" fill="white"/>
</g>
<g filter="url(#filter1_d_398_72)">
<path fill-rule="evenodd" clip-rule="evenodd" d="M45.5407 71.4418H36.6229H28.4785V71.4412C29.8887 71.4202 31.2214 70.7075 31.7812 69.5497L31.9681 69.163H44.0386C44.3309 69.5313 44.8308 69.7752 45.3959 69.7752C46.2916 69.7752 47.0244 69.1624 47.0244 68.4133V68.4132C47.0244 67.6642 46.2916 67.0513 45.3959 67.0513C44.8308 67.0513 44.3305 67.2954 44.0383 67.6637H32.693L33.7949 65.3848H37.2203H45.5405C47.5321 65.3848 49.1616 66.7487 49.1616 68.4132V68.4133C49.1616 70.0779 47.5296 71.4418 45.5405 71.4418H45.5407Z" fill="white"/>
</g>
<g filter="url(#filter2_d_398_72)">
<path fill-rule="evenodd" clip-rule="evenodd" d="M25.0652 67.2822L29.5249 58.0586H32.4638L28.1544 66.9717C27.6366 67.0603 27.1786 67.3565 26.9669 67.7946C26.6312 68.4891 27.0357 69.2871 27.8661 69.5679C28.6964 69.8488 29.6505 69.5104 29.9864 68.8159C30.1916 68.3915 30.1255 67.9109 29.8166 67.5337L34.4205 58.0586H37.3663L31.7796 69.5528C31.033 71.097 28.9114 71.8494 27.0651 71.2253V71.225C25.2187 70.6005 24.3188 68.8263 25.0655 67.2822H25.0652Z" fill="white"/>
</g>
<g filter="url(#filter3_d_398_72)">
<path fill-rule="evenodd" clip-rule="evenodd" d="M25.6212 52H33.58H42.6834V52.0005C41.2732 52.0216 39.9405 52.7343 39.3806 53.8921L39.1937 54.2788H27.1233C26.831 53.9105 26.3311 53.6666 25.7659 53.6666C24.8702 53.6666 24.1374 54.2794 24.1374 55.0285V55.0286C24.1374 55.7776 24.8702 56.3904 25.7659 56.3904C26.3311 56.3904 26.8313 56.1464 27.1234 55.7781H38.4687L37.3668 58.057H33.6342H25.6211C23.6295 58.057 22 56.6931 22 55.0286V55.0285C22 53.3639 23.632 52 25.6211 52H25.6212Z" fill="white"/>
</g>
<g filter="url(#filter4_d_398_72)">
<path fill-rule="evenodd" clip-rule="evenodd" d="M46.0958 56.1625L41.6361 65.3861H38.6972L43.0067 56.4729C43.5245 56.3843 43.9825 56.0882 44.1942 55.65C44.5299 54.9556 44.1255 54.1575 43.295 53.8768C42.4647 53.5959 41.5106 53.9343 41.1748 54.6288C40.9695 55.0532 41.0357 55.5338 41.3445 55.9111L37.9523 62.927L36.7406 65.3862H33.7949L35.1328 62.6797L39.3818 53.892C40.1284 52.3478 42.25 51.5955 44.0963 52.2196V52.2198C45.9427 52.8443 46.8424 54.6185 46.0959 56.1626L46.0958 56.1625Z" fill="white"/>
</g>
<path fill-rule="evenodd" clip-rule="evenodd" d="M25.6212 52H33.58H42.6834V52.0005C41.2732 52.0216 39.9405 52.7343 39.3806 53.8921L39.1937 54.2788H27.1233C26.831 53.9105 26.3311 53.6666 25.7659 53.6666C24.8702 53.6666 24.1374 54.2794 24.1374 55.0285V55.0286C24.1374 55.7776 24.8702 56.3904 25.7659 56.3904C26.3311 56.3904 26.8313 56.1464 27.1234 55.7781H38.4687L37.3668 58.057H33.6342H25.6211C23.6295 58.057 22 56.6931 22 55.0286V55.0285C22 53.3639 23.632 52 25.6211 52H25.6212Z" fill="url(#paint0_linear_398_72)"/>
<path fill-rule="evenodd" clip-rule="evenodd" d="M46.0958 56.1625L41.6361 65.3861H38.6972L43.0067 56.4729C43.5245 56.3843 43.9825 56.0882 44.1942 55.65C44.5299 54.9556 44.1255 54.1575 43.295 53.8768C42.4647 53.5959 41.5106 53.9343 41.1748 54.6288C40.9695 55.0532 41.0357 55.5338 41.3445 55.9111L37.9523 62.927L36.7406 65.3862H33.7949L35.1328 62.6797L39.3818 53.892C40.1284 52.3478 42.25 51.5955 44.0963 52.2196V52.2198C45.9427 52.8443 46.8424 54.6185 46.0959 56.1626L46.0958 56.1625Z" fill="url(#paint1_linear_398_72)"/>
<path fill-rule="evenodd" clip-rule="evenodd" d="M45.5407 71.4418H36.6229H28.4785V71.4412C29.8887 71.4202 31.2214 70.7075 31.7812 69.5497L31.9681 69.163H44.0386C44.3309 69.5313 44.8308 69.7752 45.3959 69.7752C46.2916 69.7752 47.0244 69.1624 47.0244 68.4133V68.4132C47.0244 67.6642 46.2916 67.0513 45.3959 67.0513C44.8308 67.0513 44.3305 67.2954 44.0383 67.6637H32.693L33.7949 65.3848H37.2203H45.5405C47.5321 65.3848 49.1616 66.7487 49.1616 68.4132V68.4133C49.1616 70.0779 47.5296 71.4418 45.5405 71.4418H45.5407Z" fill="url(#paint2_linear_398_72)"/>
<path fill-rule="evenodd" clip-rule="evenodd" d="M25.0654 67.2822L29.5251 58.0586H32.4641L28.1546 66.9717C27.6368 67.0603 27.1789 67.3565 26.9671 67.7946C26.6314 68.4891 27.0359 69.2871 27.8663 69.5679C28.6966 69.8488 29.6508 69.5104 29.9866 68.8159C30.1919 68.3915 30.1257 67.9109 29.8168 67.5337L34.4208 58.0586H37.3665L31.7798 69.5528C31.0332 71.097 28.9116 71.8494 27.0653 71.2253C25.2189 70.6008 24.3188 68.8263 25.0654 67.2822Z" fill="url(#paint3_linear_398_72)"/>
<g filter="url(#filter5_d_398_72)">
<path fill-rule="evenodd" clip-rule="evenodd" d="M56.998 55.4023H71.0131V58.3058L62.6049 65.1224H71.0333V68.3896H56.998V65.4862L65.4062 58.6695H56.998V55.4023Z" stroke="url(#paint4_linear_398_72)" stroke-width="2" shape-rendering="crispEdges"/>
</g>
<g filter="url(#filter6_d_398_72)">
<path fill-rule="evenodd" clip-rule="evenodd" d="M77.3172 65.1419H81.06C81.9409 65.1419 82.7431 64.7772 83.3255 64.1901C83.908 63.6029 84.2695 62.794 84.2695 61.9058C84.2695 61.0176 83.9078 60.2089 83.3253 59.6217C82.7429 59.0344 81.9409 58.6697 81.06 58.6697H77.3172C76.4362 58.6697 75.6342 59.0343 75.0518 59.6217C74.4693 60.2089 74.1076 61.0176 74.1076 61.9058C74.1076 62.794 74.4691 63.6029 75.0516 64.1901C75.634 64.7774 76.4362 65.1419 77.3172 65.1419ZM81.06 68.4091H77.3172C75.542 68.4091 73.9289 67.6779 72.7606 66.5C71.5923 65.3219 70.8672 63.6956 70.8672 61.9056C70.8672 60.1156 71.5925 58.4894 72.7606 57.3114C73.9289 56.1335 75.5418 55.4023 77.3172 55.4023H81.06C82.8353 55.4023 84.4482 56.1335 85.6165 57.3114C86.7848 58.4894 87.5099 60.1156 87.5099 61.9056C87.5099 63.6954 86.7848 65.3219 85.6165 66.5C84.4482 67.6779 82.8353 68.4091 81.06 68.4091Z" stroke="url(#paint5_linear_398_72)" stroke-width="2" shape-rendering="crispEdges"/>
</g>
<g filter="url(#filter7_d_398_72)">
<path fill-rule="evenodd" clip-rule="evenodd" d="M105.877 68.0102C105.877 65.3394 106.451 62.9364 107.568 60.8513C108.693 58.7506 110.362 56.9854 112.543 55.6069L113.463 55.0254L114.34 55.6644C116.507 57.2427 118.028 59.0673 119.034 61.0439C120.153 63.2439 120.62 65.6062 120.621 68.0102H117.394C117.392 66.0963 117.03 64.2332 116.161 62.5245C115.522 61.2689 114.6 60.082 113.336 59.0014C112.091 59.954 111.114 61.0924 110.416 62.3957C109.55 64.0124 109.105 65.8971 109.105 68.0104H105.877L105.877 68.0102Z" stroke="url(#paint6_linear_398_72)" stroke-width="2" shape-rendering="crispEdges"/>
</g>
<g filter="url(#filter8_d_398_72)">
<path fill-rule="evenodd" clip-rule="evenodd" d="M150.146 68.3871C150.146 65.7164 150.72 63.3133 151.837 61.2283C152.963 59.1276 154.631 57.3624 156.812 55.9839L157.732 55.4023L158.61 56.0413C160.777 57.6197 162.298 59.4442 163.303 61.4209C164.423 63.6208 164.889 65.9832 164.891 68.3871H161.663C161.662 66.4733 161.3 64.6102 160.43 62.9015C159.791 61.6459 158.869 60.459 157.605 59.3784C156.361 60.3309 155.384 61.4693 154.685 62.7727C153.819 64.3894 153.374 66.274 153.374 68.3873H150.147L150.146 68.3871Z" stroke="url(#paint7_linear_398_72)" stroke-width="2" shape-rendering="crispEdges"/>
</g>
<g filter="url(#filter9_d_398_72)">
<path fill-rule="evenodd" clip-rule="evenodd" d="M91.0277 55.4023V65.1438L100.163 65.1579V68.4123L87.7871 68.3934V55.4023H91.0277Z" stroke="url(#paint8_linear_398_72)" stroke-width="2" shape-rendering="crispEdges"/>
</g>
<g filter="url(#filter10_d_398_72)">
<path fill-rule="evenodd" clip-rule="evenodd" d="M139.58 55.4023V65.1438L148.716 65.1579V68.4123L136.34 68.3934V55.4023H139.58Z" stroke="url(#paint9_linear_398_72)" stroke-width="2" shape-rendering="crispEdges"/>
</g>
<g filter="url(#filter11_d_398_72)">
<path fill-rule="evenodd" clip-rule="evenodd" d="M121.115 68.4127V55.4023H124.159L131.689 64.0109V55.4023H134.929V68.4123H131.222L124.356 60.5624V68.4127H121.115Z" stroke="url(#paint10_linear_398_72)" stroke-width="2" shape-rendering="crispEdges"/>
</g>
<g filter="url(#filter12_d_398_72)">
<path fill-rule="evenodd" clip-rule="evenodd" d="M166.623 68.4127V55.4023H169.667L177.197 64.0109V55.4023H180.437V68.4123H176.73L169.864 60.5624V68.4127H166.623Z" stroke="url(#paint11_linear_398_72)" stroke-width="2" shape-rendering="crispEdges"/>
</g>
<g filter="url(#filter13_d_398_72)">
<path d="M95.793 55V53.731H94.524V55H95.793ZM108.169 55H109.438V53.731H108.169V55ZM95.793 58.2672H94.524V59.5362H95.793V58.2672ZM100.361 58.2672H101.63V56.9982H100.361V58.2672ZM100.361 68.0103H99.0924V69.2793H100.361V68.0103ZM103.602 68.0103V69.2793H104.871V68.0103H103.602ZM103.602 58.2672V56.9982H102.333V58.2672H103.602ZM108.169 58.2672V59.5362H109.438V58.2672H108.169ZM95.793 56.269H108.169V53.731H95.793V56.269ZM97.0619 58.2672V55H94.524V58.2672H97.0619ZM100.361 56.9982H95.793V59.5362H100.361V56.9982ZM101.63 68.0103V58.2672H99.0924V68.0103H101.63ZM103.602 66.7413H100.361V69.2793H103.602V66.7413ZM102.333 58.2672V68.0103H104.871V58.2672H102.333ZM108.169 56.9982H103.602V59.5362H108.169V56.9982ZM106.9 55V58.2672H109.438V55H106.9Z" fill="url(#paint12_linear_398_72)"/>
</g>
<g filter="url(#filter14_d_398_72)">
<path fill-rule="evenodd" clip-rule="evenodd" d="M113.25 66.6041C113.694 66.6041 114.098 66.4205 114.391 66.1249C114.684 65.8293 114.866 65.4222 114.866 64.975C114.866 64.5278 114.684 64.1208 114.391 63.8251C114.098 63.5293 113.694 63.3457 113.251 63.3457C112.807 63.3457 112.403 63.5293 112.11 63.8251C111.817 64.1208 111.635 64.5278 111.635 64.975C111.635 65.4222 111.817 65.8293 112.11 66.1249C112.403 66.4207 112.807 66.6041 113.251 66.6041H113.25Z" stroke="url(#paint13_linear_398_72)" stroke-width="2" shape-rendering="crispEdges"/>
</g>
<g filter="url(#filter15_d_398_72)">
<path fill-rule="evenodd" clip-rule="evenodd" d="M157.477 66.899C157.92 66.899 158.324 66.7154 158.618 66.4198C158.911 66.1242 159.093 65.7171 159.093 65.2699C159.093 64.8228 158.911 64.4157 158.618 64.12C158.324 63.8242 157.921 63.6406 157.477 63.6406C157.034 63.6406 156.63 63.8242 156.337 64.12C156.043 64.4157 155.861 64.8228 155.861 65.2699C155.861 65.7171 156.043 66.1242 156.337 66.4198C156.63 66.7156 157.034 66.899 157.477 66.899H157.477Z" stroke="url(#paint14_linear_398_72)" stroke-width="2" shape-rendering="crispEdges"/>
</g>
<g filter="url(#filter16_d_398_72)">
<path fill-rule="evenodd" clip-rule="evenodd" d="M196.313 67.9733C196.756 67.9733 197.16 67.7897 197.453 67.494C197.747 67.1984 197.929 66.7913 197.929 66.3441C197.929 65.897 197.747 65.4899 197.453 65.1943C197.16 64.8984 196.757 64.7148 196.313 64.7148C195.87 64.7148 195.466 64.8984 195.173 65.1943C194.879 65.4899 194.697 65.897 194.697 66.3441C194.697 66.7913 194.879 67.1984 195.173 67.494C195.466 67.7898 195.87 67.9733 196.313 67.9733H196.313Z" stroke="url(#paint15_linear_398_72)" stroke-width="2" shape-rendering="crispEdges"/>
</g>
<g filter="url(#filter17_d_398_72)">
<g filter="url(#filter18_d_398_72)">
<path d="M182 56V55H181V56H182ZM184.227 56H185.227V55H184.227V56ZM182 68.766H181V69.766H182V68.766ZM184.199 68.766L185.199 68.7653L185.198 67.766H184.199V68.766ZM184.199 68.7764L183.199 68.7771L183.2 69.7771L184.2 69.7764L184.199 68.7764ZM189.473 66.9025L188.822 66.1433L188.822 66.1433L189.473 66.9025ZM191.655 62.3857L190.655 62.3864L191.655 62.3857ZM189.467 57.8718L190.117 57.1117L189.467 57.8718ZM184.227 56.0051H183.227V57.0017L184.223 57.0051L184.227 56.0051ZM182 57H184.227V55H182V57ZM183 68.766V56H181V68.766H183ZM184.199 67.766H182V69.766H184.199V67.766ZM183.199 68.7667L183.199 68.7771L185.199 68.7758L185.199 68.7653L183.199 68.7667ZM184.2 69.7764C186.398 69.7749 188.53 69.0275 190.124 67.6618L188.822 66.1433C187.619 67.1745 185.958 67.7752 184.198 67.7764L184.2 69.7764ZM190.124 67.6618C191.722 66.2919 192.656 64.3984 192.655 62.385L190.655 62.3864C190.656 63.7601 190.021 65.1161 188.822 66.1433L190.124 67.6618ZM192.655 62.385C192.654 60.3716 191.717 58.4793 190.117 57.1117L188.817 58.632C190.017 59.6575 190.654 61.0126 190.655 62.3864L192.655 62.385ZM190.117 57.1117C188.531 55.7564 186.414 55.0127 184.23 55.0051L184.223 57.0051C185.971 57.0112 187.62 57.6087 188.817 58.632L190.117 57.1117ZM183.227 56V56.0051H185.227V56H183.227Z" fill="url(#paint16_linear_398_72)"/>
</g>
<path d="M184.883 59.4844V58.4844H183.883V59.4844H184.883ZM185.687 59.4844H186.687V58.4844H185.687V59.4844ZM184.883 64.0968H183.883V65.0968H184.883V64.0968ZM185.677 64.0968L186.677 64.0961L186.676 63.0968H185.677V64.0968ZM185.677 64.1005L184.677 64.1012L184.678 65.1012L185.678 65.1005L185.677 64.1005ZM187.582 63.4235L188.233 64.1827L188.233 64.1827L187.582 63.4235ZM188.371 61.7915L189.371 61.7909L189.371 61.7909L188.371 61.7915ZM187.58 60.1607L186.93 60.9208L186.93 60.9208L187.58 60.1607ZM185.687 59.4862H184.687V60.4826L185.684 60.4862L185.687 59.4862ZM184.883 60.4844H185.687V58.4844H184.883V60.4844ZM185.883 64.0968V59.4844H183.883V64.0968H185.883ZM185.677 63.0968H184.883V65.0968H185.677V63.0968ZM184.677 64.0974L184.677 64.1012L186.677 64.0998L186.677 64.0961L184.677 64.0974ZM185.678 65.1005C186.612 65.0999 187.533 64.783 188.233 64.1827L186.932 62.6642C186.621 62.93 186.172 63.1002 185.676 63.1005L185.678 65.1005ZM188.233 64.1827C188.938 63.5784 189.371 62.7226 189.371 61.7909L187.371 61.7922C187.371 62.0843 187.237 62.4025 186.932 62.6642L188.233 64.1827ZM189.371 61.7909C189.37 60.8591 188.936 60.0039 188.23 59.4005L186.93 60.9208C187.236 61.1821 187.371 61.5002 187.371 61.7922L189.371 61.7909ZM188.23 59.4005C187.533 58.805 186.619 58.4896 185.691 58.4862L185.684 60.4862C186.176 60.488 186.622 60.6572 186.93 60.9208L188.23 59.4005ZM184.687 59.4844V59.4862H186.687V59.4844H184.687Z" fill="url(#paint17_linear_398_72)"/>
</g>
</g>
<defs>
<filter id="filter0_d_398_72" x="-40" y="-10" width="299.564" height="203.989" filterUnits="userSpaceOnUse" color-interpolation-filters="sRGB">
<feFlood flood-opacity="0" result="BackgroundImageFix"/>
<feColorMatrix in="SourceAlpha" type="matrix" values="0 0 0 0 0 0 0 0 0 0 0 0 0 0 0 0 0 0 127 0" result="hardAlpha"/>
<feOffset dy="30"/>
<feGaussianBlur stdDeviation="20"/>
<feColorMatrix type="matrix" values="0 0 0 0 0.831373 0 0 0 0 0.85098 0 0 0 0 0.909804 0 0 0 0.2 0"/>
<feBlend mode="normal" in2="BackgroundImageFix" result="effect1_dropShadow_398_72"/>
<feBlend mode="normal" in="SourceGraphic" in2="effect1_dropShadow_398_72" result="shape"/>
</filter>
<filter id="filter1_d_398_72" x="8.47852" y="45.3848" width="60.6836" height="46.0571" filterUnits="userSpaceOnUse" color-interpolation-filters="sRGB">
<feFlood flood-opacity="0" result="BackgroundImageFix"/>
<feColorMatrix in="SourceAlpha" type="matrix" values="0 0 0 0 0 0 0 0 0 0 0 0 0 0 0 0 0 0 127 0" result="hardAlpha"/>
<feOffset/>
<feGaussianBlur stdDeviation="10"/>
<feComposite in2="hardAlpha" operator="out"/>
<feColorMatrix type="matrix" values="0 0 0 0 1 0 0 0 0 1 0 0 0 0 1 0 0 0 0.8 0"/>
<feBlend mode="normal" in2="BackgroundImageFix" result="effect1_dropShadow_398_72"/>
<feBlend mode="normal" in="SourceGraphic" in2="effect1_dropShadow_398_72" result="shape"/>
</filter>
<filter id="filter2_d_398_72" x="4.80273" y="38.0586" width="52.5645" height="53.3862" filterUnits="userSpaceOnUse" color-interpolation-filters="sRGB">
<feFlood flood-opacity="0" result="BackgroundImageFix"/>
<feColorMatrix in="SourceAlpha" type="matrix" values="0 0 0 0 0 0 0 0 0 0 0 0 0 0 0 0 0 0 127 0" result="hardAlpha"/>
<feOffset/>
<feGaussianBlur stdDeviation="10"/>
<feComposite in2="hardAlpha" operator="out"/>
<feColorMatrix type="matrix" values="0 0 0 0 1 0 0 0 0 1 0 0 0 0 1 0 0 0 0.8 0"/>
<feBlend mode="normal" in2="BackgroundImageFix" result="effect1_dropShadow_398_72"/>
<feBlend mode="normal" in="SourceGraphic" in2="effect1_dropShadow_398_72" result="shape"/>
</filter>
<filter id="filter3_d_398_72" x="2" y="32" width="60.6836" height="46.0571" filterUnits="userSpaceOnUse" color-interpolation-filters="sRGB">
<feFlood flood-opacity="0" result="BackgroundImageFix"/>
<feColorMatrix in="SourceAlpha" type="matrix" values="0 0 0 0 0 0 0 0 0 0 0 0 0 0 0 0 0 0 127 0" result="hardAlpha"/>
<feOffset/>
<feGaussianBlur stdDeviation="10"/>
<feComposite in2="hardAlpha" operator="out"/>
<feColorMatrix type="matrix" values="0 0 0 0 1 0 0 0 0 1 0 0 0 0 1 0 0 0 0.8 0"/>
<feBlend mode="normal" in2="BackgroundImageFix" result="effect1_dropShadow_398_72"/>
<feBlend mode="normal" in="SourceGraphic" in2="effect1_dropShadow_398_72" result="shape"/>
</filter>
<filter id="filter4_d_398_72" x="13.7949" y="32" width="52.5645" height="53.3862" filterUnits="userSpaceOnUse" color-interpolation-filters="sRGB">
<feFlood flood-opacity="0" result="BackgroundImageFix"/>
<feColorMatrix in="SourceAlpha" type="matrix" values="0 0 0 0 0 0 0 0 0 0 0 0 0 0 0 0 0 0 127 0" result="hardAlpha"/>
<feOffset/>
<feGaussianBlur stdDeviation="10"/>
<feComposite in2="hardAlpha" operator="out"/>
<feColorMatrix type="matrix" values="0 0 0 0 1 0 0 0 0 1 0 0 0 0 1 0 0 0 0.8 0"/>
<feBlend mode="normal" in2="BackgroundImageFix" result="effect1_dropShadow_398_72"/>
<feBlend mode="normal" in="SourceGraphic" in2="effect1_dropShadow_398_72" result="shape"/>
</filter>
<filter id="filter5_d_398_72" x="51.998" y="54.4023" width="24.0352" height="22.9873" filterUnits="userSpaceOnUse" color-interpolation-filters="sRGB">
<feFlood flood-opacity="0" result="BackgroundImageFix"/>
<feColorMatrix in="SourceAlpha" type="matrix" values="0 0 0 0 0 0 0 0 0 0 0 0 0 0 0 0 0 0 127 0" result="hardAlpha"/>
<feOffset dy="4"/>
<feGaussianBlur stdDeviation="2"/>
<feComposite in2="hardAlpha" operator="out"/>
<feColorMatrix type="matrix" values="0 0 0 0 0.7125 0 0 0 0 0.7125 0 0 0 0 0.7125 0 0 0 0.16 0"/>
<feBlend mode="normal" in2="BackgroundImageFix" result="effect1_dropShadow_398_72"/>
<feBlend mode="normal" in="SourceGraphic" in2="effect1_dropShadow_398_72" result="shape"/>
</filter>
<filter id="filter6_d_398_72" x="65.8672" y="54.4023" width="26.6426" height="23.0068" filterUnits="userSpaceOnUse" color-interpolation-filters="sRGB">
<feFlood flood-opacity="0" result="BackgroundImageFix"/>
<feColorMatrix in="SourceAlpha" type="matrix" values="0 0 0 0 0 0 0 0 0 0 0 0 0 0 0 0 0 0 127 0" result="hardAlpha"/>
<feOffset dy="4"/>
<feGaussianBlur stdDeviation="2"/>
<feComposite in2="hardAlpha" operator="out"/>
<feColorMatrix type="matrix" values="0 0 0 0 0.7125 0 0 0 0 0.7125 0 0 0 0 0.7125 0 0 0 0.16 0"/>
<feBlend mode="normal" in2="BackgroundImageFix" result="effect1_dropShadow_398_72"/>
<feBlend mode="normal" in="SourceGraphic" in2="effect1_dropShadow_398_72" result="shape"/>
</filter>
<filter id="filter7_d_398_72" x="100.877" y="53.8174" width="24.7441" height="23.1929" filterUnits="userSpaceOnUse" color-interpolation-filters="sRGB">
<feFlood flood-opacity="0" result="BackgroundImageFix"/>
<feColorMatrix in="SourceAlpha" type="matrix" values="0 0 0 0 0 0 0 0 0 0 0 0 0 0 0 0 0 0 127 0" result="hardAlpha"/>
<feOffset dy="4"/>
<feGaussianBlur stdDeviation="2"/>
<feComposite in2="hardAlpha" operator="out"/>
<feColorMatrix type="matrix" values="0 0 0 0 0.7125 0 0 0 0 0.7125 0 0 0 0 0.7125 0 0 0 0.16 0"/>
<feBlend mode="normal" in2="BackgroundImageFix" result="effect1_dropShadow_398_72"/>
<feBlend mode="normal" in="SourceGraphic" in2="effect1_dropShadow_398_72" result="shape"/>
</filter>
<filter id="filter8_d_398_72" x="145.146" y="54.1943" width="24.7441" height="23.1929" filterUnits="userSpaceOnUse" color-interpolation-filters="sRGB">
<feFlood flood-opacity="0" result="BackgroundImageFix"/>
<feColorMatrix in="SourceAlpha" type="matrix" values="0 0 0 0 0 0 0 0 0 0 0 0 0 0 0 0 0 0 127 0" result="hardAlpha"/>
<feOffset dy="4"/>
<feGaussianBlur stdDeviation="2"/>
<feComposite in2="hardAlpha" operator="out"/>
<feColorMatrix type="matrix" values="0 0 0 0 0.7125 0 0 0 0 0.7125 0 0 0 0 0.7125 0 0 0 0.16 0"/>
<feBlend mode="normal" in2="BackgroundImageFix" result="effect1_dropShadow_398_72"/>
<feBlend mode="normal" in="SourceGraphic" in2="effect1_dropShadow_398_72" result="shape"/>
</filter>
<filter id="filter9_d_398_72" x="82.7871" y="54.4023" width="22.377" height="23.0117" filterUnits="userSpaceOnUse" color-interpolation-filters="sRGB">
<feFlood flood-opacity="0" result="BackgroundImageFix"/>
<feColorMatrix in="SourceAlpha" type="matrix" values="0 0 0 0 0 0 0 0 0 0 0 0 0 0 0 0 0 0 127 0" result="hardAlpha"/>
<feOffset dy="4"/>
<feGaussianBlur stdDeviation="2"/>
<feComposite in2="hardAlpha" operator="out"/>
<feColorMatrix type="matrix" values="0 0 0 0 0.7125 0 0 0 0 0.7125 0 0 0 0 0.7125 0 0 0 0.16 0"/>
<feBlend mode="normal" in2="BackgroundImageFix" result="effect1_dropShadow_398_72"/>
<feBlend mode="normal" in="SourceGraphic" in2="effect1_dropShadow_398_72" result="shape"/>
</filter>
<filter id="filter10_d_398_72" x="131.34" y="54.4023" width="22.377" height="23.0117" filterUnits="userSpaceOnUse" color-interpolation-filters="sRGB">
<feFlood flood-opacity="0" result="BackgroundImageFix"/>
<feColorMatrix in="SourceAlpha" type="matrix" values="0 0 0 0 0 0 0 0 0 0 0 0 0 0 0 0 0 0 127 0" result="hardAlpha"/>
<feOffset dy="4"/>
<feGaussianBlur stdDeviation="2"/>
<feComposite in2="hardAlpha" operator="out"/>
<feColorMatrix type="matrix" values="0 0 0 0 0.7125 0 0 0 0 0.7125 0 0 0 0 0.7125 0 0 0 0.16 0"/>
<feBlend mode="normal" in2="BackgroundImageFix" result="effect1_dropShadow_398_72"/>
<feBlend mode="normal" in="SourceGraphic" in2="effect1_dropShadow_398_72" result="shape"/>
</filter>
<filter id="filter11_d_398_72" x="116.115" y="54.4023" width="23.8145" height="23.0103" filterUnits="userSpaceOnUse" color-interpolation-filters="sRGB">
<feFlood flood-opacity="0" result="BackgroundImageFix"/>
<feColorMatrix in="SourceAlpha" type="matrix" values="0 0 0 0 0 0 0 0 0 0 0 0 0 0 0 0 0 0 127 0" result="hardAlpha"/>
<feOffset dy="4"/>
<feGaussianBlur stdDeviation="2"/>
<feComposite in2="hardAlpha" operator="out"/>
<feColorMatrix type="matrix" values="0 0 0 0 0.7125 0 0 0 0 0.7125 0 0 0 0 0.7125 0 0 0 0.16 0"/>
<feBlend mode="normal" in2="BackgroundImageFix" result="effect1_dropShadow_398_72"/>
<feBlend mode="normal" in="SourceGraphic" in2="effect1_dropShadow_398_72" result="shape"/>
</filter>
<filter id="filter12_d_398_72" x="161.623" y="54.4023" width="23.8145" height="23.0103" filterUnits="userSpaceOnUse" color-interpolation-filters="sRGB">
<feFlood flood-opacity="0" result="BackgroundImageFix"/>
<feColorMatrix in="SourceAlpha" type="matrix" values="0 0 0 0 0 0 0 0 0 0 0 0 0 0 0 0 0 0 127 0" result="hardAlpha"/>
<feOffset dy="4"/>
<feGaussianBlur stdDeviation="2"/>
<feComposite in2="hardAlpha" operator="out"/>
<feColorMatrix type="matrix" values="0 0 0 0 0.7125 0 0 0 0 0.7125 0 0 0 0 0.7125 0 0 0 0.16 0"/>
<feBlend mode="normal" in2="BackgroundImageFix" result="effect1_dropShadow_398_72"/>
<feBlend mode="normal" in="SourceGraphic" in2="effect1_dropShadow_398_72" result="shape"/>
</filter>
<filter id="filter13_d_398_72" x="90.5234" y="53.731" width="22.9141" height="23.5483" filterUnits="userSpaceOnUse" color-interpolation-filters="sRGB">
<feFlood flood-opacity="0" result="BackgroundImageFix"/>
<feColorMatrix in="SourceAlpha" type="matrix" values="0 0 0 0 0 0 0 0 0 0 0 0 0 0 0 0 0 0 127 0" result="hardAlpha"/>
<feOffset dy="4"/>
<feGaussianBlur stdDeviation="2"/>
<feComposite in2="hardAlpha" operator="out"/>
<feColorMatrix type="matrix" values="0 0 0 0 0.7125 0 0 0 0 0.7125 0 0 0 0 0.7125 0 0 0 0.16 0"/>
<feBlend mode="normal" in2="BackgroundImageFix" result="effect1_dropShadow_398_72"/>
<feBlend mode="normal" in="SourceGraphic" in2="effect1_dropShadow_398_72" result="shape"/>
</filter>
<filter id="filter14_d_398_72" x="106.635" y="62.3457" width="13.2324" height="13.2583" filterUnits="userSpaceOnUse" color-interpolation-filters="sRGB">
<feFlood flood-opacity="0" result="BackgroundImageFix"/>
<feColorMatrix in="SourceAlpha" type="matrix" values="0 0 0 0 0 0 0 0 0 0 0 0 0 0 0 0 0 0 127 0" result="hardAlpha"/>
<feOffset dy="4"/>
<feGaussianBlur stdDeviation="2"/>
<feComposite in2="hardAlpha" operator="out"/>
<feColorMatrix type="matrix" values="0 0 0 0 0.7125 0 0 0 0 0.7125 0 0 0 0 0.7125 0 0 0 0.16 0"/>
<feBlend mode="normal" in2="BackgroundImageFix" result="effect1_dropShadow_398_72"/>
<feBlend mode="normal" in="SourceGraphic" in2="effect1_dropShadow_398_72" result="shape"/>
</filter>
<filter id="filter15_d_398_72" x="150.861" y="62.6406" width="13.2324" height="13.2583" filterUnits="userSpaceOnUse" color-interpolation-filters="sRGB">
<feFlood flood-opacity="0" result="BackgroundImageFix"/>
<feColorMatrix in="SourceAlpha" type="matrix" values="0 0 0 0 0 0 0 0 0 0 0 0 0 0 0 0 0 0 127 0" result="hardAlpha"/>
<feOffset dy="4"/>
<feGaussianBlur stdDeviation="2"/>
<feComposite in2="hardAlpha" operator="out"/>
<feColorMatrix type="matrix" values="0 0 0 0 0.7125 0 0 0 0 0.7125 0 0 0 0 0.7125 0 0 0 0.16 0"/>
<feBlend mode="normal" in2="BackgroundImageFix" result="effect1_dropShadow_398_72"/>
<feBlend mode="normal" in="SourceGraphic" in2="effect1_dropShadow_398_72" result="shape"/>
</filter>
<filter id="filter16_d_398_72" x="189.697" y="63.7148" width="13.2324" height="13.2583" filterUnits="userSpaceOnUse" color-interpolation-filters="sRGB">
<feFlood flood-opacity="0" result="BackgroundImageFix"/>
<feColorMatrix in="SourceAlpha" type="matrix" values="0 0 0 0 0 0 0 0 0 0 0 0 0 0 0 0 0 0 127 0" result="hardAlpha"/>
<feOffset dy="4"/>
<feGaussianBlur stdDeviation="2"/>
<feComposite in2="hardAlpha" operator="out"/>
<feColorMatrix type="matrix" values="0 0 0 0 0.7125 0 0 0 0 0.7125 0 0 0 0 0.7125 0 0 0 0.16 0"/>
<feBlend mode="normal" in2="BackgroundImageFix" result="effect1_dropShadow_398_72"/>
<feBlend mode="normal" in="SourceGraphic" in2="effect1_dropShadow_398_72" result="shape"/>
</filter>
<filter id="filter17_d_398_72" x="177" y="55" width="19.6543" height="22.7773" filterUnits="userSpaceOnUse" color-interpolation-filters="sRGB">
<feFlood flood-opacity="0" result="BackgroundImageFix"/>
<feColorMatrix in="SourceAlpha" type="matrix" values="0 0 0 0 0 0 0 0 0 0 0 0 0 0 0 0 0 0 127 0" result="hardAlpha"/>
<feOffset dy="4"/>
<feGaussianBlur stdDeviation="2"/>
<feComposite in2="hardAlpha" operator="out"/>
<feColorMatrix type="matrix" values="0 0 0 0 0.7125 0 0 0 0 0.7125 0 0 0 0 0.7125 0 0 0 0.16 0"/>
<feBlend mode="normal" in2="BackgroundImageFix" result="effect1_dropShadow_398_72"/>
<feBlend mode="normal" in="SourceGraphic" in2="effect1_dropShadow_398_72" result="shape"/>
</filter>
<filter id="filter18_d_398_72" x="164.503" y="38.5033" width="44.6477" height="47.7708" filterUnits="userSpaceOnUse" color-interpolation-filters="sRGB">
<feFlood flood-opacity="0" result="BackgroundImageFix"/>
<feColorMatrix in="SourceAlpha" type="matrix" values="0 0 0 0 0 0 0 0 0 0 0 0 0 0 0 0 0 0 127 0" result="hardAlpha"/>
<feOffset/>
<feGaussianBlur stdDeviation="8.24836"/>
<feComposite in2="hardAlpha" operator="out"/>
<feColorMatrix type="matrix" values="0 0 0 0 1 0 0 0 0 0.72 0 0 0 0 0 0 0 0 1 0"/>
<feBlend mode="normal" in2="BackgroundImageFix" result="effect1_dropShadow_398_72"/>
<feBlend mode="normal" in="SourceGraphic" in2="effect1_dropShadow_398_72" result="shape"/>
</filter>
<linearGradient id="paint0_linear_398_72" x1="32.3417" y1="52" x2="32.3417" y2="58.057" gradientUnits="userSpaceOnUse">
<stop stop-color="#00FFCC" stop-opacity="0.96"/>
<stop offset="1" stop-color="#033F33"/>
</linearGradient>
<linearGradient id="paint1_linear_398_72" x1="40.0768" y1="52" x2="40.0768" y2="65.3862" gradientUnits="userSpaceOnUse">
<stop stop-color="#FFB800"/>
<stop offset="1" stop-color="#FF7427"/>
</linearGradient>
<linearGradient id="paint2_linear_398_72" x1="38.8201" y1="65.3848" x2="38.8201" y2="71.4418" gradientUnits="userSpaceOnUse">
<stop stop-color="#6A93FF"/>
<stop offset="1" stop-color="#2D58C4"/>
</linearGradient>
<linearGradient id="paint3_linear_398_72" x1="31.0849" y1="58.0586" x2="31.0849" y2="71.4449" gradientUnits="userSpaceOnUse">
<stop stop-color="#5B30AE"/>
<stop offset="1" stop-color="#0E134C"/>
</linearGradient>
<linearGradient id="paint4_linear_398_72" x1="64.0157" y1="55.4023" x2="64.0157" y2="68.3896" gradientUnits="userSpaceOnUse">
<stop stop-color="#FFB800"/>
<stop offset="1" stop-color="#FF7427"/>
</linearGradient>
<linearGradient id="paint5_linear_398_72" x1="79.1886" y1="55.4023" x2="79.1886" y2="68.4091" gradientUnits="userSpaceOnUse">
<stop stop-color="#FFB800"/>
<stop offset="1" stop-color="#FF7427"/>
</linearGradient>
<linearGradient id="paint6_linear_398_72" x1="113.249" y1="55.0254" x2="113.249" y2="68.0104" gradientUnits="userSpaceOnUse">
<stop stop-color="#FFB800"/>
<stop offset="1" stop-color="#FF7427"/>
</linearGradient>
<linearGradient id="paint7_linear_398_72" x1="157.519" y1="55.4023" x2="157.519" y2="68.3873" gradientUnits="userSpaceOnUse">
<stop stop-color="#FFB800"/>
<stop offset="1" stop-color="#FF7427"/>
</linearGradient>
<linearGradient id="paint8_linear_398_72" x1="93.9753" y1="55.4023" x2="93.9753" y2="68.4123" gradientUnits="userSpaceOnUse">
<stop stop-color="#FFB800"/>
<stop offset="1" stop-color="#FF7427"/>
</linearGradient>
<linearGradient id="paint9_linear_398_72" x1="142.528" y1="55.4023" x2="142.528" y2="68.4123" gradientUnits="userSpaceOnUse">
<stop stop-color="#FFB800"/>
<stop offset="1" stop-color="#FF7427"/>
</linearGradient>
<linearGradient id="paint10_linear_398_72" x1="128.022" y1="55.4023" x2="128.022" y2="68.4127" gradientUnits="userSpaceOnUse">
<stop stop-color="#FFB800"/>
<stop offset="1" stop-color="#FF7427"/>
</linearGradient>
<linearGradient id="paint11_linear_398_72" x1="173.53" y1="55.4023" x2="173.53" y2="68.4127" gradientUnits="userSpaceOnUse">
<stop stop-color="#FFB800"/>
<stop offset="1" stop-color="#FF7427"/>
</linearGradient>
<linearGradient id="paint12_linear_398_72" x1="101.981" y1="55" x2="101.981" y2="68.0101" gradientUnits="userSpaceOnUse">
<stop stop-color="#FFB800"/>
<stop offset="1" stop-color="#FF7427"/>
</linearGradient>
<linearGradient id="paint13_linear_398_72" x1="113.251" y1="63.3457" x2="113.251" y2="66.6041" gradientUnits="userSpaceOnUse">
<stop stop-color="#FFB800"/>
<stop offset="1" stop-color="#FF7427"/>
</linearGradient>
<linearGradient id="paint14_linear_398_72" x1="157.477" y1="63.6406" x2="157.477" y2="66.899" gradientUnits="userSpaceOnUse">
<stop stop-color="#FFB800"/>
<stop offset="1" stop-color="#FF7427"/>
</linearGradient>
<linearGradient id="paint15_linear_398_72" x1="196.313" y1="64.7148" x2="196.313" y2="67.9733" gradientUnits="userSpaceOnUse">
<stop stop-color="#FFB800"/>
<stop offset="1" stop-color="#FF7427"/>
</linearGradient>
<linearGradient id="paint16_linear_398_72" x1="186.827" y1="56" x2="186.827" y2="68.7764" gradientUnits="userSpaceOnUse">
<stop stop-color="#FFB800"/>
<stop offset="1" stop-color="#FF7427"/>
</linearGradient>
<linearGradient id="paint17_linear_398_72" x1="186.627" y1="59.4844" x2="186.627" y2="64.1005" gradientUnits="userSpaceOnUse">
<stop stop-color="#FFB800"/>
<stop offset="1" stop-color="#FF7427"/>
</linearGradient>
<clipPath id="clip0_398_72">
<rect width="219" height="124" fill="white"/>
</clipPath>
</defs>
</svg>
