<svg width="134" height="134" viewBox="0 0 134 134" fill="none" xmlns="http://www.w3.org/2000/svg">
<g filter="url(#filter0_d_400_30)">
<circle cx="67" cy="57" r="47" fill="white"/>
</g>
<path d="M45 35C47.5215 35.4762 50.008 36.1205 52.4425 36.9285C66.7914 40.9959 81.1356 45.1031 95.4751 49.25C95.9971 49.4043 96.7802 49.2921 96.9707 49.9513C97.1611 50.6105 96.3781 51.0102 95.9478 51.417C83.8093 63.0489 71.6567 74.6714 59.49 86.2846C59.3251 86.5344 59.0926 86.7327 58.8193 86.8568C58.5459 86.9809 58.2429 87.0257 57.9451 86.9859C53.67 69.8887 49.3738 52.6232 45 35ZM62.855 52.8406L62.4952 52.8967L62.6504 53.086L65.056 63.2686L65.5569 63.451L72.7172 55.6317L62.855 52.8406ZM55.9627 74.3909L58.6858 85.3169L59.1161 85.5202C61.5781 82.7712 64.0543 80.0222 66.3964 77.3924L55.9627 74.3909ZM53.797 61.0035L64.0472 63.9348L61.2607 52.7144L53.797 61.0035ZM49.2962 47.4968L56.6259 39.3339L46.5379 36.4587L49.2962 47.4968ZM75.0311 56.34C75.9694 60.0778 76.8441 63.5842 77.7612 67.2449L85.9162 59.4607L75.0311 56.34ZM66.4951 64.6431L76.6466 67.5324C75.7083 63.8016 74.8477 60.3303 73.8248 56.3119L66.4951 64.6431ZM59.8427 52.0201L49.6772 49.1238L52.499 60.3443L59.8427 52.0201ZM94.7908 50.2529L84.5053 47.3215C85.4295 51.0383 86.3042 54.5166 87.1719 57.995L87.6093 58.2264L94.7908 50.2529ZM71.8918 43.7029L74.629 54.6499L81.9375 46.5711L71.8918 43.7029ZM62.989 64.8185L52.8658 61.9222L55.5818 72.9112L62.989 64.8185ZM64.3999 65.4145L57.0421 73.5424L67.123 76.3475C66.2482 72.6938 65.4087 69.3487 64.4282 65.4145H64.3999ZM75.3415 55.253L86.0432 58.2965L83.3766 47.609L75.3415 55.253ZM58.1849 40.3858L50.1428 48.0438L60.8374 51.0874L58.1849 40.3858ZM69.1406 42.9245L59.3066 40.1193C60.1954 43.7309 61.049 47.1812 61.9802 50.9401L69.1406 42.9245ZM68.2799 76.1091L68.7455 76.3124L75.7366 68.4861L65.6556 65.6109L68.2799 76.1091ZM62.7774 51.6554L73.4297 54.692C72.5197 51.0243 71.6802 47.63 70.7843 44.0535L62.7774 51.6554Z" fill="#191919"/>
<defs>
<filter id="filter0_d_400_30" x="0" y="0" width="134" height="134" filterUnits="userSpaceOnUse" color-interpolation-filters="sRGB">
<feFlood flood-opacity="0" result="BackgroundImageFix"/>
<feColorMatrix in="SourceAlpha" type="matrix" values="0 0 0 0 0 0 0 0 0 0 0 0 0 0 0 0 0 0 127 0" result="hardAlpha"/>
<feOffset dy="10"/>
<feGaussianBlur stdDeviation="10"/>
<feColorMatrix type="matrix" values="0 0 0 0 0.160784 0 0 0 0 0.160784 0 0 0 0 0.164706 0 0 0 0.07 0"/>
<feBlend mode="normal" in2="BackgroundImageFix" result="effect1_dropShadow_400_30"/>
<feBlend mode="normal" in="SourceGraphic" in2="effect1_dropShadow_400_30" result="shape"/>
</filter>
</defs>
</svg>
